<mxfile host="app.diagrams.net" modified="2021-06-16T11:32:45.141Z" agent="5.0 (Macintosh; Intel Mac OS X 10_14_6) AppleWebKit/537.36 (KHTML, like Gecko) Chrome/91.0.4472.106 Safari/537.36" etag="xyLlGxbRaSxJd04biRAP" version="14.7.8" type="github">
  <diagram id="prtHgNgQTEPvFCAcTncT" name="Page-1">
    <mxGraphModel dx="1874" dy="614" grid="1" gridSize="10" guides="1" tooltips="1" connect="1" arrows="1" fold="1" page="1" pageScale="1" pageWidth="827" pageHeight="1169" background="#DAD2D8" math="0" shadow="0">
      <root>
        <mxCell id="0" />
        <mxCell id="1" parent="0" />
        <UserObject label="Gesture Recognition with Movuino" name="Tessa Miller" position="CFO" location="Office 1" email="me@example.com" placeholders="1" id="WhTT48HInwpxBMo1IxZA-3">
          <mxCell style="label;whiteSpace=wrap;html=1;glass=0;treeMoving=1;treeFolding=1;fillColor=#FAE5C7;strokeColor=#0F8B8D;fontColor=#143642;" vertex="1" parent="1">
            <mxGeometry x="-270" y="110" width="180" height="70" as="geometry" />
          </mxCell>
        </UserObject>
        <mxCell id="WhTT48HInwpxBMo1IxZA-4" value="" style="endArrow=blockThin;endFill=1;fontSize=11;edgeStyle=elbowEdgeStyle;elbow=vertical;strokeColor=#A8201A;fontColor=#143642;labelBackgroundColor=#DAD2D8;" edge="1" parent="1" source="WhTT48HInwpxBMo1IxZA-3" target="WhTT48HInwpxBMo1IxZA-5">
          <mxGeometry relative="1" as="geometry" />
        </mxCell>
        <UserObject label="%name%&lt;br&gt;" name="Predictions on Movuino" placeholders="1" id="WhTT48HInwpxBMo1IxZA-5">
          <mxCell style="label;whiteSpace=wrap;html=1;glass=0;treeFolding=1;treeMoving=1;fillColor=#FAE5C7;strokeColor=#0F8B8D;fontColor=#143642;" vertex="1" parent="1">
            <mxGeometry x="-490" y="230" width="240" height="80" as="geometry" />
          </mxCell>
        </UserObject>
        <mxCell id="WhTT48HInwpxBMo1IxZA-6" value="" style="endArrow=blockThin;endFill=1;fontSize=11;edgeStyle=elbowEdgeStyle;elbow=vertical;strokeColor=#A8201A;fontColor=#143642;labelBackgroundColor=#DAD2D8;" edge="1" parent="1" source="WhTT48HInwpxBMo1IxZA-3" target="WhTT48HInwpxBMo1IxZA-7">
          <mxGeometry relative="1" as="geometry" />
        </mxCell>
        <UserObject label="%name%&lt;br&gt;" name="Predictions on computer" placeholders="1" id="WhTT48HInwpxBMo1IxZA-7">
          <mxCell style="label;whiteSpace=wrap;html=1;glass=0;treeFolding=1;treeMoving=1;fillColor=#FAE5C7;strokeColor=#0F8B8D;fontColor=#143642;" vertex="1" parent="1">
            <mxGeometry x="-70" y="230" width="240" height="80" as="geometry" />
          </mxCell>
        </UserObject>
        <object label="&lt;div&gt;&lt;sub&gt;&lt;b&gt;&lt;font style=&quot;font-size: 14px&quot;&gt;&lt;br&gt;&lt;/font&gt;&lt;/b&gt;&lt;/sub&gt;&lt;/div&gt;&lt;div&gt;&lt;sub&gt;&lt;b&gt;&lt;font style=&quot;font-size: 14px&quot;&gt;&lt;br&gt;&lt;/font&gt;&lt;/b&gt;&lt;/sub&gt;&lt;/div&gt;&lt;div&gt;&lt;sub&gt;&lt;b&gt;&lt;font style=&quot;font-size: 14px&quot;&gt;Challenges&lt;/font&gt;&lt;/b&gt;:&lt;/sub&gt;&lt;/div&gt;&lt;div&gt;&lt;span&gt;&lt;sub&gt;&lt;font style=&quot;font-size: 12px&quot;&gt;1. C++&lt;/font&gt;&lt;/sub&gt;&lt;/span&gt;&lt;/div&gt;&lt;div&gt;&lt;div&gt;&lt;span&gt;	&lt;/span&gt;&lt;span style=&quot;white-space: pre&quot;&gt;	&lt;/span&gt;a. Cannot solve memory problems&lt;br&gt;&lt;/div&gt;&lt;div&gt;&lt;span&gt;	&lt;/span&gt;&lt;span style=&quot;white-space: pre&quot;&gt;	&lt;/span&gt;b. Cannot solve the bugs&lt;/div&gt;&lt;/div&gt;&lt;div&gt;&lt;span&gt;&lt;sub&gt;&lt;font style=&quot;font-size: 12px&quot;&gt;2. Lack of knowledge in electronics&lt;/font&gt;&lt;/sub&gt;&lt;/span&gt;&lt;/div&gt;&lt;div&gt;&lt;span&gt;&lt;sub&gt;&lt;font style=&quot;font-size: 12px&quot;&gt;&lt;span style=&quot;white-space: pre&quot;&gt;	&lt;/span&gt;a. Having trouble running Movuino&amp;nbsp;&lt;br&gt;&lt;/font&gt;&lt;/sub&gt;&lt;/span&gt;&lt;/div&gt;&lt;div&gt;&lt;span&gt;&lt;sub&gt;&lt;font style=&quot;font-size: 12px&quot;&gt;&lt;span style=&quot;white-space: pre&quot;&gt;	&lt;/span&gt;b. coordinate between Movuino &lt;span style=&quot;white-space: pre&quot;&gt;	&lt;/span&gt;and&amp;nbsp; DL Models&lt;br&gt;&lt;/font&gt;&lt;/sub&gt;&lt;/span&gt;&lt;/div&gt;&lt;div&gt;&lt;br&gt;&lt;/div&gt;&lt;div&gt;&lt;br&gt;&lt;/div&gt;" Challenges="Lack of knowledge in hardware" placeholders="1" Progress="" id="WhTT48HInwpxBMo1IxZA-8">
          <mxCell style="whiteSpace=wrap;html=1;align=left;spacingLeft=4;spacingRight=2;fillColor=#FAE5C7;strokeColor=#0F8B8D;fontColor=#143642;rounded=1;" vertex="1" parent="1">
            <mxGeometry x="-495" y="660" width="240" height="170" as="geometry" />
          </mxCell>
        </object>
        <object label="&lt;div&gt;&lt;sub&gt;&lt;b&gt;&lt;font style=&quot;font-size: 14px&quot;&gt;&lt;br&gt;&lt;/font&gt;&lt;/b&gt;&lt;/sub&gt;&lt;/div&gt;&lt;div&gt;&lt;sub&gt;&lt;b&gt;&lt;font style=&quot;font-size: 14px&quot;&gt;&lt;br&gt;&lt;/font&gt;&lt;/b&gt;&lt;/sub&gt;&lt;/div&gt;&lt;div&gt;&lt;sub&gt;&lt;b&gt;&lt;font style=&quot;font-size: 14px&quot;&gt;Challenges&lt;/font&gt;&lt;/b&gt;:&lt;/sub&gt;&lt;/div&gt;&lt;div&gt;&lt;span&gt;&lt;sub&gt;&lt;font&gt;&lt;span style=&quot;font-size: 12px&quot;&gt;1. Lack of experience in optimising&amp;nbsp;the data collection process and the model&lt;/span&gt;&lt;/font&gt;&lt;/sub&gt;&lt;/span&gt;&lt;/div&gt;&lt;div&gt;&lt;br&gt;&lt;/div&gt;&lt;div&gt;&lt;br&gt;&lt;/div&gt;&lt;div&gt;&lt;br&gt;&lt;/div&gt;" Challenges="Lack of knowledge in hardware" placeholders="1" Progress="" id="WhTT48HInwpxBMo1IxZA-9">
          <mxCell style="whiteSpace=wrap;html=1;align=left;fillColor=#FAE5C7;strokeColor=#0F8B8D;fontColor=#143642;rounded=1;" vertex="1" parent="1">
            <mxGeometry x="-70" y="660" width="240" height="170" as="geometry" />
          </mxCell>
        </object>
        <object label="&lt;div&gt;&lt;span&gt;&lt;span style=&quot;font-size: 14px&quot;&gt;&lt;b&gt;Shortcomings:&lt;/b&gt;&lt;/span&gt;&lt;/span&gt;&lt;/div&gt;&lt;div&gt;&lt;span&gt;1. The prediction accuracy is not very high&amp;nbsp;&lt;/span&gt;&lt;br&gt;&lt;/div&gt;&lt;div&gt;&lt;span&gt;&lt;sub&gt;&lt;font style=&quot;font-size: 12px&quot;&gt;2. Cannot predict motions for long time run. When the motion changes rapidly, the prediction will stop.&amp;nbsp;&lt;/font&gt;&lt;/sub&gt;&lt;/span&gt;&lt;/div&gt;" Challenges="Lack of knowledge in hardware" placeholders="1" Progress="" id="WhTT48HInwpxBMo1IxZA-10">
          <mxCell style="whiteSpace=wrap;html=1;align=left;spacingLeft=4;spacingRight=2;fillColor=#FAE5C7;strokeColor=#0F8B8D;fontColor=#143642;rounded=1;" vertex="1" parent="1">
            <mxGeometry x="-495" y="510" width="240" height="130" as="geometry" />
          </mxCell>
        </object>
        <object label="&lt;div&gt;&lt;span&gt;&lt;span style=&quot;font-size: 14px&quot;&gt;&lt;b&gt;Progress&lt;/b&gt;&lt;/span&gt;&lt;/span&gt;&lt;/div&gt;&lt;div&gt;&lt;span&gt;1. Deployed the sketch on Movuino with help&amp;nbsp;&lt;/span&gt;&lt;br&gt;&lt;/div&gt;&lt;div&gt;&lt;span&gt;&lt;sub&gt;&lt;font style=&quot;font-size: 12px&quot;&gt;2. Models can predict between &quot;flapping&quot; and &quot;walking&quot;&lt;/font&gt;&lt;/sub&gt;&lt;/span&gt;&lt;/div&gt;&lt;div&gt;&lt;span&gt;&lt;sub&gt;&lt;font style=&quot;font-size: 12px&quot;&gt;3. Automate the motion recording process with Python&amp;nbsp;&lt;/font&gt;&lt;/sub&gt;&lt;/span&gt;&lt;/div&gt;&lt;div&gt;&lt;span&gt;&lt;sub&gt;&lt;font style=&quot;font-size: 12px&quot;&gt;4. Document the whole process on GitHub for further explorations from others&lt;/font&gt;&lt;/sub&gt;&lt;/span&gt;&lt;/div&gt;" Challenges="Lack of knowledge in hardware" placeholders="1" Progress="" id="WhTT48HInwpxBMo1IxZA-11">
          <mxCell style="whiteSpace=wrap;html=1;align=left;spacingLeft=4;spacingRight=2;fillColor=#FAE5C7;strokeColor=#0F8B8D;fontColor=#143642;rounded=1;" vertex="1" parent="1">
            <mxGeometry x="-495" y="320" width="240" height="170" as="geometry" />
          </mxCell>
        </object>
        <object label="&lt;div&gt;&lt;span&gt;&lt;span style=&quot;font-size: 14px&quot;&gt;&lt;b&gt;Progress&lt;/b&gt;&lt;/span&gt;&lt;/span&gt;&lt;/div&gt;&lt;div&gt;&lt;span&gt;1. Built the data pipeline with Python&amp;nbsp;&lt;/span&gt;&lt;br&gt;&lt;/div&gt;&lt;div&gt;&lt;span&gt;&lt;sub&gt;&lt;font style=&quot;font-size: 12px&quot;&gt;2. Built a most viable dashboard with Dash for real-time predictions&lt;/font&gt;&lt;/sub&gt;&lt;/span&gt;&lt;/div&gt;&lt;div&gt;&lt;span&gt;&lt;sub&gt;&lt;font style=&quot;font-size: 12px&quot;&gt;3. Document the whole process on GitHub for further explorations from others&lt;/font&gt;&lt;/sub&gt;&lt;/span&gt;&lt;/div&gt;" Challenges="Lack of knowledge in hardware" placeholders="1" Progress="" id="WhTT48HInwpxBMo1IxZA-12">
          <mxCell style="whiteSpace=wrap;html=1;align=left;spacingLeft=4;spacingRight=2;fillColor=#FAE5C7;strokeColor=#0F8B8D;fontColor=#143642;rounded=1;" vertex="1" parent="1">
            <mxGeometry x="-70" y="320" width="240" height="170" as="geometry" />
          </mxCell>
        </object>
        <object label="&lt;div&gt;&lt;span&gt;&lt;span style=&quot;font-size: 14px&quot;&gt;&lt;b&gt;Shortcoming:&lt;/b&gt;&lt;/span&gt;&lt;/span&gt;&lt;/div&gt;&lt;div&gt;&lt;span&gt;1. The model cannot make accurate predictions because of the lack of quantity and complexity of the motion data.&amp;nbsp;&amp;nbsp;&lt;/span&gt;&lt;/div&gt;&lt;div&gt;&lt;span&gt;2. Lots of computational power&lt;/span&gt;&lt;/div&gt;" Challenges="Lack of knowledge in hardware" placeholders="1" Progress="" id="WhTT48HInwpxBMo1IxZA-13">
          <mxCell style="whiteSpace=wrap;html=1;align=left;spacingLeft=4;spacingRight=2;fillColor=#FAE5C7;strokeColor=#0F8B8D;fontColor=#143642;rounded=1;" vertex="1" parent="1">
            <mxGeometry x="-70" y="510" width="240" height="130" as="geometry" />
          </mxCell>
        </object>
      </root>
    </mxGraphModel>
  </diagram>
</mxfile>
